<svg xmlns="http://www.w3.org/2000/svg" xmlns:xlink="http://www.w3.org/1999/xlink" viewBox="0 0 80 80"><defs><clipPath id="b"><rect width="80" height="80"/></clipPath></defs><g id="a" clip-path="url(#b)"><rect width="80" height="80" fill="#fff"/><rect width="80" height="80" fill="#fff"/><rect width="80" height="40" transform="translate(0 40)" fill="#7f54b3"/><g transform="translate(7.937 35.34)"><path d="M13.193,15.851a1.9,1.9,0,0,1,1.489-.732,1.726,1.726,0,0,1,2.056,1.7q1.1,7.408,2.386,12.547L24.3,19.514A2.243,2.243,0,0,1,26.071,18.1c1.04-.071,1.678.591,1.938,1.985a44.115,44.115,0,0,0,2.245,8.081q.922-9,3.119-13a1.816,1.816,0,0,1,1.559-1.04,2.052,2.052,0,0,1,1.489.473,1.85,1.85,0,0,1,.732,1.347,2.051,2.051,0,0,1-.236,1.134c-.922,1.7-1.678,4.56-2.292,8.53a43.992,43.992,0,0,0-.662,9,2.8,2.8,0,0,1-.284,1.559,1.522,1.522,0,0,1-1.252.851,2.375,2.375,0,0,1-1.867-.874q-3.3-3.367-5.222-10.066-2.3,4.537-3.4,6.8c-1.394,2.67-2.576,4.041-3.568,4.112-.638.047-1.182-.5-1.654-1.63q-1.807-4.644-3.9-17.934a2.013,2.013,0,0,1,.378-1.583Zm50.779,3.71a5.442,5.442,0,0,0-3.781-2.741,6.205,6.205,0,0,0-1.276-.142c-2.268,0-4.111,1.181-5.553,3.544a12.521,12.521,0,0,0-1.843,6.663,9.15,9.15,0,0,0,1.134,4.679,5.443,5.443,0,0,0,3.781,2.741,6.205,6.205,0,0,0,1.276.142c2.292,0,4.135-1.181,5.553-3.544a12.663,12.663,0,0,0,1.843-6.687A8.72,8.72,0,0,0,63.972,19.561ZM61,26.106a6.251,6.251,0,0,1-1.8,3.5,2.271,2.271,0,0,1-1.914.756c-.567-.118-1.04-.614-1.394-1.536a6,6,0,0,1-.425-2.15,8.223,8.223,0,0,1,.165-1.725,7.646,7.646,0,0,1,1.252-2.812c.78-1.158,1.607-1.63,2.457-1.465.567.118,1.04.614,1.394,1.536a6,6,0,0,1,.425,2.15A8.294,8.294,0,0,1,61,26.106ZM49.181,19.561A5.491,5.491,0,0,0,45.4,16.82a6.2,6.2,0,0,0-1.276-.142c-2.268,0-4.111,1.181-5.553,3.544a12.521,12.521,0,0,0-1.843,6.663,9.15,9.15,0,0,0,1.134,4.679,5.443,5.443,0,0,0,3.781,2.741,6.205,6.205,0,0,0,1.276.142c2.292,0,4.135-1.181,5.553-3.544a12.663,12.663,0,0,0,1.843-6.687,8.941,8.941,0,0,0-1.134-4.655Zm-3,6.545a6.251,6.251,0,0,1-1.8,3.5,2.271,2.271,0,0,1-1.914.756c-.567-.118-1.04-.614-1.394-1.536a6,6,0,0,1-.425-2.15,8.223,8.223,0,0,1,.165-1.725,7.646,7.646,0,0,1,1.252-2.812c.78-1.158,1.607-1.63,2.457-1.465.567.118,1.04.614,1.394,1.536a6,6,0,0,1,.425,2.15A6.983,6.983,0,0,1,46.18,26.106Z" transform="translate(-6.884 -0.913)" fill="#fff"/></g><text transform="translate(10 27)" font-size="20" font-family="Swiss721BT-Heavy, Swis721 Hv BT" font-weight="800"><tspan x="0" y="0">?utm_</tspan></text></g></svg>